<svg xmlns="http://www.w3.org/2000/svg" xmlns:xlink="http://www.w3.org/1999/xlink" viewBox="0,0,256,256" width="25px" height="25px" fill-rule="nonzero"><g fill="#7fca2a" fill-rule="nonzero" stroke="none" stroke-width="1" stroke-linecap="butt" stroke-linejoin="miter" stroke-miterlimit="10" stroke-dasharray="" stroke-dashoffset="0" font-family="none" font-weight="none" font-size="none" text-anchor="none" style="mix-blend-mode: normal"><g transform="scale(8.53333,8.53333)"><path d="M15,2c-3.23,0 -6.17717,1.18577 -8.45117,3.13477l2.83789,2.83789c1.54,-1.231 3.48828,-1.97266 5.61328,-1.97266c2.125,0 4.07328,0.74166 5.61328,1.97266l2.83789,-2.83789c-2.274,-1.949 -5.22117,-3.13477 -8.45117,-3.13477zM5.13477,6.54883c-1.949,2.274 -3.13477,5.22117 -3.13477,8.45117c0,7.18 5.82,13 13,13c7.18,0 13,-5.82 13,-13c0,-3.23 -1.18577,-6.17717 -3.13477,-8.45117l-2.83789,2.83789c1.231,1.54 1.97266,3.48828 1.97266,5.61328c0,1.45309 -0.35146,2.82211 -0.96289,4.03711l-5.03125,-5.03125c0,0 -2.02886,-3.00586 -2.00586,-3.00586v6l4.83984,4.83984c-1.57245,1.34399 -3.60886,2.16016 -5.83984,2.16016c-2.23098,0 -4.2674,-0.81617 -5.83984,-2.16016l4.83984,-4.83984v-6c0.023,0 -2.00586,3.00586 -2.00586,3.00586l-5.03125,5.03125c-0.61143,-1.215 -0.96289,-2.58402 -0.96289,-4.03711c0,-2.125 0.74166,-4.07328 1.97266,-5.61328z"></path></g></g></svg>